<svg preserveAspectRatio="none" width="100%" height="100%" overflow="visible" style="display: block;" viewBox="0 0 42.6316 42.6316" fill="none" xmlns="http://www.w3.org/2000/svg">
<g id="Frame">
<path id="Vector" d="M15.987 5.32956H7.10539C6.12436 5.32956 5.32908 6.12485 5.32908 7.10588V15.9875C5.32908 16.9685 6.12436 17.7638 7.10539 17.7638H15.987C16.968 17.7638 17.7633 16.9685 17.7633 15.9875V7.10588C17.7633 6.12485 16.968 5.32956 15.987 5.32956Z" fill="var(--fill-0, black)"/>
<path id="Vector_2" d="M35.5261 5.32956H26.6445C25.6635 5.32956 24.8682 6.12485 24.8682 7.10588V15.9875C24.8682 16.9685 25.6635 17.7638 26.6445 17.7638H35.5261C36.5071 17.7638 37.3024 16.9685 37.3024 15.9875V7.10588C37.3024 6.12485 36.5071 5.32956 35.5261 5.32956Z" fill="var(--fill-0, black)"/>
<path id="Vector_3" d="M15.987 24.8677H7.10539C6.12436 24.8677 5.32908 25.6629 5.32908 26.644V35.5255C5.32908 36.5066 6.12436 37.3019 7.10539 37.3019H15.987C16.968 37.3019 17.7633 36.5066 17.7633 35.5255V26.644C17.7633 25.6629 16.968 24.8677 15.987 24.8677Z" fill="var(--fill-0, black)"/>
<path id="Vector_4" d="M35.5261 24.8677H26.6445C25.6635 24.8677 24.8682 25.6629 24.8682 26.644V35.5255C24.8682 36.5066 25.6635 37.3019 26.6445 37.3019H35.5261C36.5071 37.3019 37.3024 36.5066 37.3024 35.5255V26.644C37.3024 25.6629 36.5071 24.8677 35.5261 24.8677Z" fill="var(--fill-0, black)"/>
</g>
</svg>
