<svg preserveAspectRatio="none" width="100%" height="100%" overflow="visible" style="display: block;" viewBox="0 0 17 17" fill="none" xmlns="http://www.w3.org/2000/svg">
<g id="SVG">
<path id="Vector" d="M14.7617 3.26542C14.3999 2.90346 13.9703 2.61633 13.4975 2.42043C13.0248 2.22454 12.518 2.12371 12.0063 2.12371C11.4945 2.12371 10.9877 2.22454 10.515 2.42043C10.0422 2.61633 9.61262 2.90346 9.25083 3.26542L8.5 4.01625L7.74917 3.26542C7.01838 2.53463 6.02723 2.12409 4.99375 2.12409C3.96027 2.12409 2.96912 2.53463 2.23833 3.26542C1.50755 3.9962 1.097 4.98735 1.097 6.02083C1.097 7.05431 1.50755 8.04547 2.23833 8.77625L2.98917 9.52708L8.5 15.0379L14.0108 9.52708L14.7617 8.77625C15.1236 8.41446 15.4107 7.98491 15.6066 7.51213C15.8025 7.03934 15.9034 6.5326 15.9034 6.02083C15.9034 5.50907 15.8025 5.00232 15.6066 4.52954C15.4107 4.05676 15.1236 3.6272 14.7617 3.26542Z" stroke="var(--stroke-0, #555555)" stroke-width="1.41667"/>
</g>
</svg>
