<svg preserveAspectRatio="none" width="100%" height="100%" overflow="visible" style="display: block;" viewBox="0 0 17 17" fill="none" xmlns="http://www.w3.org/2000/svg">
<g id="SVG">
<path id="Vector" d="M14.1667 4.25H2.83333C2.05093 4.25 1.41667 4.88426 1.41667 5.66667V12.75C1.41667 13.5324 2.05093 14.1667 2.83333 14.1667H14.1667C14.9491 14.1667 15.5833 13.5324 15.5833 12.75V5.66667C15.5833 4.88426 14.9491 4.25 14.1667 4.25Z" stroke="var(--stroke-0, #0068D0)" stroke-width="1.41667"/>
<path id="Vector_2" d="M4.95833 4.25V2.83333C4.95833 2.45761 5.10759 2.09728 5.37327 1.8316C5.63894 1.56592 5.99928 1.41667 6.375 1.41667H10.625C11.0007 1.41667 11.3611 1.56592 11.6267 1.8316C11.8924 2.09728 12.0417 2.45761 12.0417 2.83333V4.25" stroke="var(--stroke-0, #0068D0)" stroke-width="1.41667"/>
<path id="Vector_3" d="M8.5 10.625C9.2824 10.625 9.91667 9.99074 9.91667 9.20833C9.91667 8.42593 9.2824 7.79167 8.5 7.79167C7.7176 7.79167 7.08333 8.42593 7.08333 9.20833C7.08333 9.99074 7.7176 10.625 8.5 10.625Z" stroke="var(--stroke-0, #0068D0)" stroke-width="1.41667"/>
</g>
</svg>
