<svg preserveAspectRatio="none" width="100%" height="100%" overflow="visible" style="display: block;" viewBox="0 0 27.301 27.301" fill="none" xmlns="http://www.w3.org/2000/svg">
<path id="Vector" d="M25.0363 1.03971L1.73628 7.60221C1.53793 7.65643 1.36113 7.77048 1.22995 7.92882C1.09877 8.08716 1.01958 8.28209 1.00319 8.48706C0.986789 8.69203 1.03397 8.89706 1.13831 9.07424C1.24266 9.25143 1.39908 9.39214 1.58628 9.47721L12.2863 14.5397C12.4959 14.6368 12.6642 14.8051 12.7613 15.0147L17.8238 25.7147C17.9088 25.9019 18.0496 26.0583 18.2267 26.1627C18.4039 26.267 18.609 26.3142 18.8139 26.2978C19.0189 26.2814 19.2138 26.2022 19.3722 26.071C19.5305 25.9399 19.6445 25.763 19.6988 25.5647L26.2613 2.26471C26.311 2.09468 26.3141 1.9144 26.2702 1.74278C26.2263 1.57115 26.137 1.4145 26.0117 1.28923C25.8865 1.16397 25.7298 1.07471 25.5582 1.0308C25.3866 0.986902 25.2063 0.989977 25.0363 1.03971V1.03971Z" stroke="var(--stroke-0, #0068D0)" stroke-width="2" stroke-linecap="round" stroke-linejoin="round"/>
</svg>
