<svg preserveAspectRatio="none" width="100%" height="100%" overflow="visible" style="display: block;" viewBox="0 0 17 17" fill="none" xmlns="http://www.w3.org/2000/svg">
<g id="SVG">
<path id="Vector" d="M6.375 3.54167H4.95833C4.58261 3.54167 4.22228 3.69092 3.9566 3.9566C3.69092 4.22228 3.54167 4.58261 3.54167 4.95833V13.4583C3.54167 13.8341 3.69092 14.1944 3.9566 14.4601C4.22228 14.7257 4.58261 14.875 4.95833 14.875H12.0417C12.4174 14.875 12.7777 14.7257 13.0434 14.4601C13.3091 14.1944 13.4583 13.8341 13.4583 13.4583V4.95833C13.4583 4.58261 13.3091 4.22228 13.0434 3.9566C12.7777 3.69092 12.4174 3.54167 12.0417 3.54167H10.625" stroke="var(--stroke-0, #0068D0)" stroke-width="1.41667"/>
<path id="Vector_2" d="M9.91667 2.125H7.08333C6.69213 2.125 6.375 2.44213 6.375 2.83333V4.25C6.375 4.6412 6.69213 4.95833 7.08333 4.95833H9.91667C10.3079 4.95833 10.625 4.6412 10.625 4.25V2.83333C10.625 2.44213 10.3079 2.125 9.91667 2.125Z" stroke="var(--stroke-0, #0068D0)" stroke-width="1.41667"/>
<path id="Vector_3" d="M6.375 8.5H10.625M6.375 11.3333H9.20833" stroke="var(--stroke-0, #0068D0)" stroke-width="1.41667"/>
</g>
</svg>
